<?xml version="1.0" encoding="UTF-8"?>
<svg width="700pt" height="700pt" version="1.1" viewBox="0 0 700 700" xmlns="http://www.w3.org/2000/svg">
 <path d="m339.26 109.66c-79.824-0.10938-158.55 30.805-217.51 89.555-2.7305 2.7266-2.7305 7.1406 0 9.8672 2.7344 2.7148 7.1602 2.7148 9.8984 0 87.871-87.551 221.61-110.31 333.67-56.789 3.4922 1.6562 7.6719 0.18359 9.3438-3.293 1.6602-3.4805 0.17578-7.6445-3.3164-9.3047-42.184-20.152-87.301-29.977-132.08-30.035zm160.04 46.461c-44.652 0-81.016 36.328-81.016 80.98 0 44.652 36.359 81.023 81.016 81.023 44.652 0 81.023-36.371 81.023-81.023 0-44.652-36.371-80.98-81.023-80.98zm0 13.977c37.09 0 67.016 29.914 67.016 67.004 0 37.09-29.926 67.016-67.016 67.016s-67.004-29.926-67.004-67.016c0-37.09 29.914-67.004 67.004-67.004zm-159.16 24.906c-58.297-0.36328-115.39 22.277-157.83 64.555-2.7188 2.7266-2.7188 7.1289 0 9.8555 1.3125 1.3164 3.0977 2.0625 4.9609 2.0664 1.8633 0.007812 3.6523-0.72656 4.9727-2.0352 54.133-53.934 133.67-73.746 206.89-51.492 3.7031 1.1211 7.6211-0.96094 8.75-4.6484 1.125-3.6875-0.95312-7.5859-4.6484-8.7188-20.762-6.3086-42.012-9.4492-63.102-9.582zm201.41 11.922c-1.8477 0.011719-3.6172 0.75391-4.9219 2.0664l-48.07 48.039-28.57-28.57h0.003906c-1.3125-1.3203-3.0938-2.0625-4.957-2.0664-1.8477 0.011719-3.6172 0.75391-4.9219 2.0664-2.7227 2.7344-2.7227 7.1562 0 9.8906l33.48 33.523c0.25391 0.24609 0.52344 0.47266 0.80859 0.67578 0.058593 0.042969 0.11719 0.082031 0.17578 0.12109 0.20703 0.14453 0.42188 0.28125 0.64453 0.40625 0.12891 0.066406 0.26172 0.13281 0.39453 0.19531 0.16016 0.070312 0.32031 0.13672 0.48047 0.19531 0.17188 0.066406 0.34375 0.125 0.51562 0.17578 0.20703 0.0625 0.42188 0.11328 0.63281 0.15234 0.070312 0.015625 0.14062 0.03125 0.21094 0.046875 0.71094 0.10938 1.4375 0.10938 2.1523 0h0.042969c0.29687-0.050781 0.58984-0.12109 0.875-0.21094 0.16016-0.042968 0.31641-0.09375 0.47266-0.15234 0.17188-0.066407 0.34375-0.13672 0.51172-0.21875 0.12109-0.054688 0.23828-0.11328 0.35156-0.17578 0.21484-0.11328 0.42188-0.24219 0.625-0.38281 0.089844-0.058594 0.18359-0.12109 0.27344-0.18359 0.26563-0.19922 0.51563-0.41406 0.75391-0.64453 0.078125-0.078125 0.15234-0.16016 0.23047-0.24219l52.773-52.762c2.7188-2.7305 2.7188-7.1445 0-9.8789-1.3164-1.3203-3.1016-2.0664-4.9688-2.0664zm-202.86 73.469c-34.695 0-69.395 13.164-95.824 39.496h0.003907c-1.3125 1.3125-2.0469 3.0938-2.0391 4.9492 0.003906 1.8555 0.75 3.6289 2.0703 4.9375 2.7383 2.7148 7.1641 2.7148 9.8984 0 47.5-47.324 124.3-47.348 171.8-0.023438h0.003907c1.3125 1.3164 3.0977 2.0625 4.9609 2.0664 1.8633 0.003907 3.6523-0.73047 4.9688-2.043 1.3125-1.3164 2.0469-3.0977 2.043-4.9531-0.007813-1.8516-0.75391-3.6289-2.0742-4.9336-26.43-26.336-61.117-39.496-95.812-39.496zm2.4727 95.102c-9.6328 0.007812-19.266 3.6641-26.578 10.949-14.625 14.57-14.656 38.387-0.03125 52.961 14.625 14.57 38.562 14.57 53.188 0s14.625-38.422 0-52.992c-7.3125-7.2852-16.945-10.922-26.578-10.914zm-0.011718 13.891c6.0156 0 12.023 2.3086 16.656 6.9219 9.2656 9.2305 9.2969 23.996 0.03125 33.227-9.2656 9.2305-24.094 9.1992-33.359-0.03125-9.2656-9.2305-9.2656-23.965 0-33.195 4.6328-4.6172 10.652-6.9219 16.668-6.9219z"/>
</svg>
